<svg width="214" height="153" viewBox="0 0 214 153" fill="none" xmlns="http://www.w3.org/2000/svg">
<g filter="url(#filter0_dd_5_23713)">
<rect x="52.6029" y="33.9877" width="108.559" height="37.9247" fill="white"/>
</g>
<path fill-rule="evenodd" clip-rule="evenodd" d="M70.5434 45.2968H77.8921L77.8915 52.5786H70.5434V45.2968Z" fill="#F1511B"/>
<path fill-rule="evenodd" clip-rule="evenodd" d="M78.6424 45.2968H85.9911C85.9911 47.724 85.9915 50.1513 85.9907 52.5786C83.5415 52.5782 81.092 52.5786 78.6429 52.5786C78.642 50.1513 78.6424 47.724 78.6424 45.2968Z" fill="#80CC28"/>
<path fill-rule="evenodd" clip-rule="evenodd" d="M136.811 48.0712C137.489 47.6343 138.364 47.5935 139.128 47.8017C139.134 48.2514 139.128 48.7014 139.131 49.1513C138.768 48.9931 138.341 48.8899 137.959 49.0451C137.656 49.1641 137.476 49.4721 137.429 49.7798C137.372 50.1704 137.409 50.5661 137.4 50.9589C138.175 50.9606 138.95 50.9594 139.725 50.9598C139.731 50.4612 139.719 49.9622 139.731 49.4636C140.258 49.3151 140.779 49.1483 141.304 48.9918C141.308 49.6486 141.298 50.306 141.31 50.9633C141.834 50.9558 142.358 50.9616 142.882 50.9598V52.2387C142.356 52.2171 141.83 52.2328 141.304 52.2311C141.306 52.9664 141.304 53.7016 141.304 54.4371C141.313 54.8443 141.282 55.2536 141.33 55.6595C141.359 55.8988 141.447 56.1639 141.674 56.2876C142.053 56.498 142.534 56.4061 142.882 56.1752V57.4666C142.428 57.6621 141.921 57.7217 141.429 57.6871C140.963 57.6529 140.48 57.4851 140.176 57.1176C139.825 56.7026 139.735 56.1406 139.727 55.6149C139.723 54.4866 139.728 53.3582 139.726 52.2294C138.95 52.2289 138.175 52.2286 137.4 52.2298C137.399 54.0006 137.399 55.7715 137.399 57.5425H135.81C135.81 55.7718 135.808 54.002 135.811 52.2317C135.442 52.2246 135.073 52.2334 134.705 52.2259C134.706 51.8057 134.708 51.3849 134.704 50.9642C135.071 50.9558 135.438 50.9594 135.806 50.962C135.832 50.403 135.746 49.828 135.915 49.2835C136.057 48.792 136.374 48.3485 136.811 48.0712ZM102.783 48.163C103.104 48.1148 103.451 48.2233 103.663 48.4718C103.912 48.7438 103.958 49.1767 103.773 49.4948C103.569 49.8533 103.113 50.0199 102.715 49.9339C102.303 49.8605 101.959 49.4803 101.977 49.0565C101.965 48.6105 102.342 48.2129 102.783 48.1629V48.163ZM90.6031 48.3581H92.9145C93.6339 50.1684 94.3586 51.9766 95.079 53.7868C95.263 54.2396 95.4352 54.6974 95.628 55.1465C96.5535 52.8847 97.4923 50.6284 98.4107 48.3633C99.1519 48.3514 99.8932 48.3606 100.635 48.3589C100.633 51.42 100.634 54.4809 100.634 57.5419C100.099 57.5406 99.565 57.5464 99.0304 57.5388C99.0361 55.28 99.03 53.0211 99.0331 50.7618C99.034 50.6602 99.0304 50.5587 99.0233 50.4574C98.992 50.5046 98.9643 50.5536 98.9401 50.6044C98.0214 52.9164 97.0853 55.2221 96.1722 57.5365C95.7918 57.5502 95.4109 57.5375 95.0299 57.5434C94.0825 55.2314 93.1467 52.9139 92.2039 50.5999C92.1791 50.5517 92.1528 50.505 92.124 50.4601C92.1046 51.4496 92.121 52.4402 92.1157 53.43C92.116 54.8006 92.1148 56.1713 92.116 57.5419C91.6117 57.5432 91.1072 57.5419 90.6031 57.5425C90.6026 54.4809 90.6022 51.4194 90.6031 48.3581ZM107.157 50.9537C107.924 50.7372 108.752 50.7459 109.518 50.9606C109.676 51.0044 109.829 51.0652 109.972 51.1479C109.963 51.6495 109.972 52.1516 109.967 52.6537C109.454 52.2657 108.804 52.02 108.153 52.1013C107.635 52.1476 107.142 52.4136 106.832 52.8277C106.435 53.3412 106.343 54.0229 106.411 54.6511C106.463 55.1426 106.668 55.6338 107.054 55.9597C107.454 56.3125 108.016 56.4375 108.54 56.3982C109.059 56.3392 109.548 56.1217 109.967 55.8182C109.971 56.2936 109.964 56.769 109.97 57.2444C109.32 57.6276 108.541 57.7264 107.798 57.6903C107.037 57.6504 106.278 57.3648 105.727 56.8347C105.129 56.2631 104.804 55.4478 104.765 54.6314C104.727 53.7824 104.901 52.8968 105.394 52.1879C105.807 51.583 106.453 51.1548 107.157 50.9537ZM124.518 50.8536C125.253 50.7253 126.022 50.8194 126.718 51.0805C126.719 51.5635 126.718 52.0457 126.718 52.5282C126.232 52.1971 125.639 52.019 125.049 52.0396C124.752 52.051 124.425 52.1758 124.29 52.4556C124.182 52.7324 124.257 53.0954 124.52 53.2612C124.971 53.5599 125.508 53.6868 125.975 53.9543C126.343 54.1591 126.7 54.4266 126.886 54.8125C127.236 55.535 127.088 56.4898 126.472 57.0286C125.885 57.5725 125.039 57.723 124.261 57.6942C123.708 57.6587 123.153 57.5506 122.645 57.3266C122.647 56.819 122.642 56.3117 122.648 55.8043C123.075 56.1118 123.568 56.3317 124.089 56.421C124.453 56.4795 124.848 56.4823 125.186 56.3213C125.51 56.1617 125.568 55.7054 125.376 55.4263C125.196 55.2112 124.932 55.0929 124.682 54.9765C124.214 54.7679 123.722 54.5933 123.311 54.2807C123.021 54.0571 122.803 53.7423 122.717 53.3871C122.59 52.8636 122.629 52.2736 122.937 51.8161C123.288 51.283 123.897 50.9633 124.518 50.8536ZM113.525 51.0609C113.964 50.7998 114.521 50.7779 115 50.9376C114.998 51.4629 115 51.9879 114.999 52.5132C114.685 52.3122 114.294 52.2259 113.925 52.2632C113.473 52.3139 113.116 52.6571 112.931 53.0509C112.729 53.4676 112.691 53.9389 112.704 54.3947C112.704 55.4439 112.705 56.4932 112.704 57.5425H111.137C111.136 55.3495 111.139 53.1563 111.136 50.9633C111.659 50.9567 112.182 50.9594 112.705 50.9619C112.703 51.3386 112.705 51.715 112.704 52.0921C112.874 51.6824 113.127 51.2844 113.525 51.0608V51.0609ZM102.122 50.9619C102.649 50.9598 103.176 50.9547 103.703 50.9646C103.697 53.1573 103.703 55.3499 103.7 57.5425H102.123C102.121 55.3491 102.123 53.1557 102.122 50.962V50.9619ZM117.925 50.8404C118.688 50.7442 119.492 50.7872 120.2 51.1064C120.815 51.381 121.313 51.8887 121.588 52.4968C121.883 53.1437 121.954 53.8708 121.904 54.5728C121.855 55.258 121.638 55.9447 121.206 56.4892C120.763 57.0675 120.096 57.4593 119.381 57.6049C118.77 57.7309 118.131 57.7303 117.52 57.6032C116.789 57.4482 116.113 57.028 115.684 56.4166C115.181 55.7081 115.038 54.8073 115.102 53.9583C115.145 53.2379 115.371 52.5119 115.836 51.9469C116.344 51.314 117.124 50.9406 117.925 50.8404ZM118.399 52.0904C118.019 52.1113 117.635 52.2387 117.353 52.4992C116.965 52.8479 116.788 53.3674 116.74 53.8725C116.687 54.428 116.725 55.0136 116.981 55.52C117.18 55.9132 117.546 56.2221 117.977 56.3344C118.401 56.4433 118.862 56.4341 119.273 56.2779C119.623 56.1424 119.901 55.8563 120.053 55.5179C120.283 55.0157 120.305 54.4512 120.277 53.9094C120.238 53.414 120.096 52.8951 119.728 52.5373C119.385 52.1931 118.877 52.0594 118.399 52.0904ZM130.593 50.8382C131.386 50.7409 132.228 50.7935 132.952 51.1558C133.583 51.4685 134.072 52.0337 134.317 52.6869C134.508 53.1868 134.575 53.7265 134.564 54.2587C134.565 55.0537 134.349 55.8698 133.845 56.5005C133.374 57.1111 132.652 57.5079 131.891 57.6324C131.146 57.7518 130.36 57.7208 129.652 57.4449C128.936 57.1655 128.34 56.595 128.038 55.8926C127.723 55.1768 127.69 54.3711 127.788 53.6063C127.891 52.8412 128.241 52.0934 128.836 51.5848C129.325 51.1602 129.953 50.9197 130.593 50.8382ZM131.022 52.0917C130.582 52.1161 130.146 52.3039 129.862 52.6431C129.55 53.0067 129.416 53.4864 129.38 53.9539C129.343 54.4366 129.38 54.9366 129.568 55.3879C129.725 55.7667 130.023 56.096 130.407 56.257C130.762 56.4088 131.163 56.4358 131.544 56.3795C131.898 56.3278 132.241 56.16 132.472 55.8844C132.701 55.6102 132.822 55.2646 132.883 54.9183C132.96 54.4533 132.961 53.9745 132.87 53.5118C132.789 53.1173 132.613 52.7255 132.295 52.4639C131.95 52.1635 131.47 52.0608 131.022 52.0917Z" fill="#282C4B"/>
<path fill-rule="evenodd" clip-rule="evenodd" d="M70.5434 53.3217C72.993 53.3225 75.4425 53.3214 77.8921 53.3225C77.8925 55.7498 77.8921 58.1766 77.8921 60.6039H70.5434V53.3217Z" fill="#00ADEF"/>
<path fill-rule="evenodd" clip-rule="evenodd" d="M78.6428 53.3224C81.0919 53.3216 83.5414 53.322 85.991 53.322V60.6038H78.6423C78.6428 58.1766 78.6419 55.7493 78.6428 53.3224Z" fill="#FBBC09"/>
<defs>
<filter id="filter0_dd_5_23713" x="0.456436" y="0.803555" width="212.852" height="151.699" filterUnits="userSpaceOnUse" color-interpolation-filters="sRGB">
<feFlood flood-opacity="0" result="BackgroundImageFix"/>
<feColorMatrix in="SourceAlpha" type="matrix" values="0 0 0 0 0 0 0 0 0 0 0 0 0 0 0 0 0 0 127 0" result="hardAlpha"/>
<feOffset dx="-18.9624" dy="47.4059"/>
<feGaussianBlur stdDeviation="16.5921"/>
<feColorMatrix type="matrix" values="0 0 0 0 0.47451 0 0 0 0 0.47451 0 0 0 0 0.47451 0 0 0 0.05 0"/>
<feBlend mode="normal" in2="BackgroundImageFix" result="effect1_dropShadow_5_23713"/>
<feColorMatrix in="SourceAlpha" type="matrix" values="0 0 0 0 0 0 0 0 0 0 0 0 0 0 0 0 0 0 127 0" result="hardAlpha"/>
<feOffset dx="18.9624"/>
<feGaussianBlur stdDeviation="16.5921"/>
<feColorMatrix type="matrix" values="0 0 0 0 0.475 0 0 0 0 0.475 0 0 0 0 0.475 0 0 0 0.05 0"/>
<feBlend mode="normal" in2="effect1_dropShadow_5_23713" result="effect2_dropShadow_5_23713"/>
<feBlend mode="normal" in="SourceGraphic" in2="effect2_dropShadow_5_23713" result="shape"/>
</filter>
</defs>
</svg>
