<svg width="95" height="39" viewBox="0 0 95 39" fill="none" xmlns="http://www.w3.org/2000/svg">
<g clip-path="url(#clip0_5_23722)">
<path fill-rule="evenodd" clip-rule="evenodd" d="M36.094 24.6283L36.8918 22.7744C37.7536 23.4188 38.9018 23.7538 40.0346 23.7538C40.8708 23.7538 41.4001 23.4316 41.4001 22.9431C41.3874 21.5776 36.3906 22.6465 36.3523 19.2224C36.3395 17.4835 37.884 16.1436 40.073 16.1436C41.3746 16.1436 42.6736 16.4658 43.6019 17.1997L42.8552 19.092C42.0062 18.5499 40.9501 18.1638 39.9451 18.1638C39.2623 18.1638 38.8123 18.486 38.8123 18.8977C38.8251 20.2376 43.8602 19.5037 43.9113 22.7744C43.9113 24.5516 42.4051 25.8021 40.2417 25.8021C38.6563 25.7995 37.2013 25.4262 36.094 24.6283ZM66.7316 22.1044C66.3327 22.7999 65.586 23.2756 64.7217 23.2756C63.4456 23.2756 62.4176 22.245 62.4176 20.9715C62.4176 19.6981 63.4482 18.6675 64.7217 18.6675C65.5834 18.6675 66.3327 19.1432 66.7316 19.8387L68.9333 18.6164C68.1099 17.1486 66.5245 16.1436 64.7217 16.1436C62.0545 16.1436 59.8911 18.307 59.8911 20.9741C59.8911 23.6412 62.0545 25.8046 64.7217 25.8046C66.5373 25.8046 68.1099 24.8124 68.9333 23.3318L66.7316 22.1044ZM45.0186 12.1365H47.7752V25.6205H45.0186V12.1365ZM70.015 12.1365V25.6205H72.7717V21.575L76.0423 25.6205H79.5712L75.4107 20.8156L79.2618 16.3328H75.8863L72.7691 20.0535V12.1365H70.015Z" fill="#B7C0CC"/>
<path d="M55.9659 22.13C55.567 22.7872 54.7436 23.2756 53.8153 23.2756C52.5393 23.2756 51.5113 22.2451 51.5113 20.9716C51.5113 19.6981 52.5419 18.6675 53.8153 18.6675C54.7436 18.6675 55.567 19.1815 55.9659 19.8515V22.13ZM55.9659 16.3354V17.4299C55.5159 16.6704 54.3958 16.1411 53.2221 16.1411C50.8004 16.1411 48.8953 18.2789 48.8953 20.9588C48.8953 23.6387 50.8004 25.8021 53.2221 25.8021C54.3933 25.8021 55.5133 25.2753 55.9659 24.5133V25.6077H58.7226V16.3354H55.9659Z" fill="#B7C0CC"/>
<path fill-rule="evenodd" clip-rule="evenodd" d="M19.0554 22.1172C19.0554 23.0582 18.2959 23.8177 17.3549 23.8177C16.4138 23.8177 15.6544 23.0556 15.6544 22.1172C15.6544 21.1787 16.4138 20.4166 17.3549 20.4166H19.0554V22.1172ZM19.9044 22.1172C19.9044 21.1761 20.6639 20.4166 21.6049 20.4166C22.546 20.4166 23.3055 21.1761 23.3055 22.1172V26.3672C23.3055 27.3082 22.546 28.0677 21.6049 28.0677C20.6639 28.0677 19.9044 27.3082 19.9044 26.3672V22.1172Z" fill="#B7C0CC"/>
<path fill-rule="evenodd" clip-rule="evenodd" d="M21.605 15.2922C20.664 15.2922 19.9045 14.5327 19.9045 13.5916C19.9045 12.6506 20.664 11.8911 21.605 11.8911C22.5461 11.8911 23.3055 12.6506 23.3055 13.5916V15.2922H21.605ZM21.605 16.1539C22.5461 16.1539 23.3055 16.9134 23.3055 17.8545C23.3055 18.7955 22.5461 19.555 21.605 19.555H17.3422C16.4011 19.555 15.6417 18.793 15.6417 17.8545C15.6417 16.916 16.4011 16.1539 17.3422 16.1539H21.605Z" fill="#B7C0CC"/>
<path fill-rule="evenodd" clip-rule="evenodd" d="M28.4173 17.8543C28.4173 16.9133 29.1768 16.1538 30.1178 16.1538C31.0588 16.1538 31.8183 16.9133 31.8183 17.8543C31.8183 18.7954 31.0588 19.5549 30.1178 19.5549H28.4173V17.8543ZM27.5683 17.8543C27.5683 18.7954 26.8088 19.5549 25.8678 19.5549C24.9267 19.5549 24.1672 18.7954 24.1672 17.8543V13.5915C24.1672 12.6505 24.9267 11.891 25.8678 11.891C26.8088 11.891 27.5683 12.6505 27.5683 13.5915V17.8543Z" fill="#B7C0CC"/>
<path fill-rule="evenodd" clip-rule="evenodd" d="M25.8678 24.6667C26.8088 24.6667 27.5683 25.4262 27.5683 26.3672C27.5683 27.3082 26.8088 28.0677 25.8678 28.0677C24.9267 28.0677 24.1672 27.3082 24.1672 26.3672V24.6667H25.8678ZM25.8678 23.8177C24.9267 23.8177 24.1672 23.0582 24.1672 22.1172C24.1672 21.1761 24.9267 20.4166 25.8678 20.4166H30.1306C31.0716 20.4166 31.8311 21.1761 31.8311 22.1172C31.8311 23.0582 31.0716 23.8177 30.1306 23.8177H25.8678Z" fill="#B7C0CC"/>
</g>
<defs>
<clipPath id="clip0_5_23722">
<rect width="63.9296" height="16.1767" fill="white" transform="translate(15.6417 11.8911)"/>
</clipPath>
</defs>
</svg>
