<svg width="80" height="23" viewBox="0 0 80 23" fill="none" xmlns="http://www.w3.org/2000/svg">
<path fill-rule="evenodd" clip-rule="evenodd" d="M3.71866 3.72394H11.0673L11.0667 11.0058H3.71866V3.72394Z" fill="#F1511B"/>
<path fill-rule="evenodd" clip-rule="evenodd" d="M11.8177 3.72394H19.1663C19.1663 6.15121 19.1667 8.57849 19.1659 11.0058C16.7168 11.0053 14.2672 11.0058 11.8181 11.0058C11.8172 8.57849 11.8177 6.15121 11.8177 3.72394Z" fill="#80CC28"/>
<path fill-rule="evenodd" clip-rule="evenodd" d="M69.9865 6.49851C70.664 6.06164 71.5394 6.02082 72.3028 6.22902C72.3095 6.67874 72.3037 7.12874 72.3058 7.5786C71.943 7.42041 71.5161 7.31716 71.1346 7.47239C70.8317 7.59146 70.6515 7.89937 70.6045 8.20714C70.5476 8.59768 70.5845 8.99344 70.5748 9.38624C71.3499 9.38794 72.1249 9.38667 72.8999 9.38709C72.9058 8.8885 72.8938 8.38948 72.9066 7.89089C73.4336 7.74245 73.9547 7.57564 74.4791 7.41914C74.4835 8.07592 74.473 8.73327 74.485 9.39062C75.0088 9.38314 75.5332 9.38893 76.0575 9.38709V10.6661C75.5313 10.6444 75.0048 10.6601 74.4788 10.6584C74.481 11.3937 74.4791 12.1289 74.4795 12.8644C74.4879 13.2716 74.4576 13.6809 74.5056 14.0868C74.5347 14.3261 74.6226 14.5912 74.8489 14.715C75.2282 14.9253 75.7092 14.8335 76.0575 14.6025V15.8939C75.6032 16.0894 75.0957 16.149 74.6045 16.1144C74.1383 16.0802 73.6557 15.9124 73.3515 15.5449C73.0001 15.1299 72.9097 14.5679 72.9026 14.0422C72.8986 12.914 72.903 11.7856 72.9009 10.6567C72.1253 10.6562 71.3499 10.6559 70.5748 10.6572C70.5739 12.4279 70.5744 14.1988 70.5744 15.9698H68.9851C68.9851 14.1991 68.9828 12.4293 68.9859 10.659C68.6173 10.6519 68.2484 10.6607 67.8799 10.6532C67.8812 10.233 67.8829 9.81224 67.8789 9.39147C68.2458 9.38314 68.613 9.38667 68.9808 9.38935C69.0076 8.83031 68.9216 8.2553 69.0903 7.71081C69.2327 7.21928 69.5497 6.77577 69.9865 6.49851ZM35.9586 6.59032C36.279 6.54216 36.6258 6.65063 36.8382 6.89908C37.0872 7.17111 37.1331 7.60403 36.9485 7.92211C36.7446 8.28059 36.2883 8.44725 35.8906 8.36124C35.478 8.28779 35.1341 7.90756 35.1525 7.48383C35.1407 7.03778 35.5172 6.64018 35.9586 6.59018V6.59032ZM23.7783 6.78538H26.0897C26.8091 8.5957 27.5338 10.4039 28.2542 12.2141C28.4382 12.6669 28.6104 13.1247 28.8032 13.5738C29.7288 11.312 30.6675 9.05573 31.5859 6.7906C32.3271 6.77874 33.0685 6.78792 33.81 6.78622C33.8082 9.84726 33.8091 12.9082 33.8097 15.9692C33.2747 15.9679 32.7402 15.9737 32.2057 15.9661C32.2114 13.7073 32.2052 11.4484 32.2084 9.18907C32.2092 9.08751 32.2057 8.98596 32.1985 8.88469C32.1672 8.93186 32.1395 8.98087 32.1153 9.03172C31.1966 11.3437 30.2606 13.6494 29.3475 15.9638C28.967 15.9775 28.5862 15.9648 28.2052 15.9708C27.2577 13.6587 26.3219 11.3412 25.3792 9.0272C25.3544 8.97904 25.328 8.93229 25.2992 8.88737C25.2798 9.87693 25.2962 10.8675 25.2909 11.8573C25.2912 13.2279 25.2901 14.5986 25.2912 15.9692C24.7869 15.9705 24.2825 15.9692 23.7783 15.9698C23.7779 12.9082 23.7774 9.8467 23.7783 6.78538ZM40.3326 9.38102C41.0994 9.16449 41.9267 9.17325 42.6933 9.38794C42.8514 9.43172 43.0043 9.49246 43.1467 9.57523C43.1378 10.0768 43.1467 10.5789 43.1417 11.081C42.6292 10.693 41.9792 10.4473 41.3278 10.5286C40.8104 10.575 40.317 10.8409 40.0077 11.255C39.6099 11.7685 39.5181 12.4502 39.5867 13.0784C39.6378 13.5699 39.843 14.0611 40.2288 14.387C40.6295 14.7398 41.1912 14.8648 41.7156 14.8255C42.2339 14.7665 42.723 14.549 43.1417 14.2455C43.1462 14.7209 43.1395 15.1963 43.1453 15.6717C42.4955 16.0549 41.7166 16.1537 40.9729 16.1176C40.212 16.0777 39.4532 15.7921 38.9025 15.262C38.304 14.6904 37.9791 13.8751 37.9406 13.0587C37.9018 12.2097 38.0762 11.3241 38.5692 10.6152C38.9823 10.0103 39.6286 9.58215 40.3326 9.38102ZM57.6933 9.28088C58.4283 9.15263 59.1976 9.24669 59.893 9.50785C59.894 9.99077 59.893 10.473 59.8934 10.9555C59.4075 10.6244 58.8138 10.4463 58.2242 10.4669C57.9272 10.4783 57.6007 10.6031 57.4651 10.8829C57.3574 11.1597 57.4321 11.5227 57.6956 11.6885C58.146 11.9873 58.6837 12.1141 59.1507 12.3816C59.5183 12.5864 59.8749 12.8539 60.0614 13.2398C60.4113 13.9623 60.2631 14.9171 59.6476 15.4559C59.0603 15.9998 58.2142 16.1503 57.4361 16.1215C56.8834 16.086 56.3282 15.978 55.8202 15.7539C55.8225 15.2463 55.8171 14.739 55.8228 14.2316C56.2501 14.5391 56.743 14.759 57.2647 14.8483C57.6281 14.9068 58.0232 14.9096 58.3616 14.7486C58.6856 14.589 58.7437 14.1327 58.5514 13.8536C58.3713 13.6385 58.1068 13.5202 57.8575 13.4038C57.3893 13.1952 56.8971 13.0206 56.4859 12.708C56.1967 12.4844 55.9777 12.1696 55.8922 11.8144C55.7651 11.2909 55.8047 10.7009 56.1119 10.2435C56.4628 9.71026 57.0723 9.39062 57.6933 9.28088ZM46.7004 9.48822C47.139 9.22706 47.6965 9.20517 48.1754 9.36492C48.1733 9.8902 48.1754 10.4152 48.1741 10.9405C47.8607 10.7395 47.4697 10.6532 47.0999 10.6905C46.6486 10.7412 46.2912 11.0844 46.106 11.4782C45.9046 11.8949 45.8667 12.3662 45.8794 12.822C45.8794 13.8712 45.8799 14.9205 45.8794 15.9698H44.3126C44.3113 13.7768 44.3144 11.5836 44.3113 9.39062C44.8343 9.38398 45.3574 9.38667 45.8804 9.38921C45.8782 9.76591 45.8804 10.1423 45.8791 10.5194C46.049 10.1097 46.3019 9.71167 46.7004 9.48808V9.48822ZM35.2969 9.38921C35.8239 9.38709 36.3514 9.38201 36.8783 9.39189C36.8721 11.5846 36.878 13.7772 36.8757 15.9698H35.2978C35.2965 13.7764 35.2984 11.583 35.2969 9.38935V9.38921ZM51.1003 9.26774C51.863 9.17155 52.6675 9.21449 53.3755 9.5337C53.9899 9.80828 54.4878 10.3161 54.7636 10.9241C55.0578 11.571 55.1295 12.2981 55.0796 13.0001C55.0306 13.6853 54.8135 14.372 54.3809 14.9165C53.9383 15.4948 53.271 15.8866 52.5564 16.0322C51.9454 16.1582 51.3064 16.1576 50.6955 16.0305C49.9647 15.8756 49.2881 15.4554 48.8594 14.8439C48.3564 14.1354 48.2135 13.2346 48.2773 12.3856C48.3205 11.6652 48.5466 10.9392 49.011 10.3742C49.5194 9.74133 50.2994 9.36788 51.1003 9.26774ZM51.5743 10.5177C51.1944 10.5387 50.8104 10.6661 50.5287 10.9265C50.1403 11.2752 49.9628 11.7947 49.9148 12.2998C49.8618 12.8553 49.9001 13.4409 50.1563 13.9473C50.3553 14.3405 50.7212 14.6494 51.1523 14.7617C51.5761 14.8706 52.0372 14.8614 52.4477 14.7052C52.7985 14.5698 53.0766 14.2836 53.2286 13.9452C53.4579 13.4431 53.4806 12.8785 53.4524 12.3367C53.413 11.8413 53.271 11.3224 52.9036 10.9646C52.5603 10.6204 52.0519 10.4867 51.5743 10.5177ZM63.7678 9.26548C64.5609 9.16816 65.403 9.22085 66.1269 9.58314C66.7582 9.89585 67.2475 10.461 67.4918 11.1142C67.6831 11.6141 67.7502 12.1538 67.739 12.686C67.7404 13.481 67.5237 14.2972 67.0201 14.9278C66.5488 15.5384 65.8277 15.9352 65.0662 16.0597C64.3217 16.1791 63.535 16.1482 62.8276 15.8722C62.1109 15.5928 61.5151 15.0223 61.2131 14.3199C60.8985 13.6041 60.8653 12.7984 60.9633 12.0336C61.0661 11.2685 61.4158 10.5207 62.0116 10.0121C62.4998 9.58752 63.1282 9.34698 63.7678 9.26548ZM64.1969 10.519C63.7571 10.5435 63.3211 10.7312 63.0369 11.0704C62.7253 11.434 62.5914 11.9137 62.5552 12.3812C62.5179 12.864 62.5552 13.364 62.7437 13.8152C62.9005 14.194 63.1981 14.5233 63.5818 14.6843C63.9377 14.8361 64.3385 14.8631 64.7188 14.8068C65.0733 14.7551 65.4167 14.5873 65.6476 14.3117C65.8766 14.0375 65.9974 13.6919 66.0583 13.3456C66.1353 12.8806 66.1361 12.4018 66.0452 11.9391C65.9645 11.5446 65.7883 11.1528 65.47 10.8912C65.1251 10.5908 64.6457 10.4881 64.1969 10.519Z" fill="#282C4B"/>
<path fill-rule="evenodd" clip-rule="evenodd" d="M3.71866 11.7489C6.1682 11.7497 8.61775 11.7486 11.0673 11.7498C11.0677 14.177 11.0673 16.6039 11.0673 19.0312H3.71866V11.7489Z" fill="#00ADEF"/>
<path fill-rule="evenodd" clip-rule="evenodd" d="M11.818 11.7497C14.2671 11.7488 16.7167 11.7493 19.1662 11.7493V19.0311H11.8176C11.818 16.6038 11.8171 14.1765 11.818 11.7497Z" fill="#FBBC09"/>
</svg>
