<svg width="95" height="39" viewBox="0 0 95 39" fill="none" xmlns="http://www.w3.org/2000/svg">
<g clip-path="url(#clip0_5_23707)">
<path d="M85.524 25.3323C85.8383 25.3323 86.0238 25.2811 86.1402 25.1774C86.2307 25.0828 86.2761 24.8631 86.2761 24.5054V17.1763C86.2761 16.8013 86.2352 16.5525 86.1572 16.4284C86.0536 16.271 85.8342 16.1923 85.5018 16.1923H85.2481V15.6634L88.1962 15.435V24.5092C88.1962 24.975 88.3206 25.2377 88.5712 25.2939C88.67 25.3195 88.8169 25.3323 89.0065 25.3323V25.9018H85.524V25.3323ZM80.8987 22.6944C81.1701 22.4639 81.657 22.2809 82.3603 22.1423V23.1859C82.3603 23.7765 82.2695 24.2246 82.093 24.5307C81.865 24.9404 81.5673 25.1428 81.1964 25.1428C80.9767 25.1428 80.7912 25.0485 80.6405 24.8544C80.4894 24.66 80.4124 24.3799 80.4124 24.0094C80.4121 23.4056 80.576 22.9703 80.8987 22.6944ZM79.6468 19.9047C79.705 19.7505 79.8561 19.6028 80.1019 19.4628C80.3847 19.3036 80.7041 19.2205 81.0286 19.2216C81.9166 19.2216 82.3606 19.6278 82.3606 20.4423V21.5628C81.046 21.8189 80.106 22.1146 79.5331 22.4487C78.7876 22.8795 78.4126 23.4833 78.4126 24.2593C78.4126 24.7161 78.5526 25.1171 78.8351 25.4575C79.2035 25.8976 79.7494 26.1167 80.4734 26.1167C80.8852 26.1167 81.2792 26.0002 81.6543 25.7632C82.0036 25.5472 82.2663 25.2717 82.4431 24.9352V25.28C82.4531 25.5732 82.4531 25.7843 82.4431 25.9008H84.9919V25.3317H84.8949C84.4856 25.3317 84.2811 25.0509 84.2811 24.4867V21.0866C84.2811 19.4458 83.3519 18.6244 81.499 18.6244C80.749 18.6244 80.1199 18.7828 79.609 19.0996C79.0981 19.4153 78.8437 19.8288 78.8437 20.3431C78.8437 20.6974 78.9602 20.9778 79.1976 21.1816C79.3954 21.3511 79.6483 21.4427 79.9088 21.4391C80.2083 21.4391 80.4561 21.3451 80.6543 21.1576C80.8547 20.9722 80.9555 20.7625 80.9555 20.5331C80.9555 19.9643 80.6516 19.6787 80.0509 19.6787C79.8225 19.6787 79.6374 19.7519 79.4988 19.8964L79.6478 19.9543C79.6492 19.922 79.6492 19.9047 79.6468 19.9047ZM30.3062 21.5171C31.4679 21.5171 32.3965 21.2897 33.0948 20.8381C33.8837 20.3331 34.276 19.5872 34.276 18.5967C34.276 17.5676 33.8775 16.8013 33.0799 16.296C32.4013 15.8638 31.4832 15.6472 30.3235 15.6472H26.4614V16.2066C26.9203 16.2066 27.2048 16.2398 27.3147 16.3036C27.5022 16.4093 27.5968 16.697 27.5968 17.169V24.4575C27.5968 24.8149 27.5192 25.0568 27.3619 25.1816C27.2326 25.2807 26.9913 25.3282 26.6354 25.3282H26.4611V25.8976H31.0562V25.3282H30.5779C30.2095 25.3282 29.9592 25.272 29.8258 25.1514C29.6923 25.035 29.6255 24.8066 29.6255 24.4575V21.5171H30.3062ZM32.1681 18.6043C32.1681 20.113 31.5518 20.8672 30.3231 20.8672H29.6767V16.2433H30.3231C31.5518 16.2433 32.1681 17.0311 32.1681 18.6043ZM37.2002 20.1958C37.4675 19.1474 38.0341 18.6227 38.9048 18.6227C39.2236 18.6227 39.4781 18.709 39.6701 18.8833C39.8617 19.0576 39.9588 19.2874 39.9588 19.5751C39.9603 19.8205 39.8739 20.0583 39.7151 20.2454C39.5297 20.461 39.2971 20.5705 39.0167 20.5705C38.7495 20.5705 38.5364 20.4877 38.379 20.3241C38.2282 20.1806 38.1613 20.0042 38.1742 19.7948C38.1742 19.7754 38.1849 19.7259 38.2022 19.6472C37.9392 19.9782 37.7326 20.5449 37.5773 21.3424C37.4522 21.9815 37.3877 22.5676 37.3877 23.0958V24.505C37.3877 24.8367 37.4266 25.0523 37.4997 25.1514C37.5902 25.272 37.8359 25.3282 38.2324 25.3282H38.4715V25.8976H34.6056V25.3282H34.7502C35.0153 25.3282 35.207 25.2807 35.3234 25.1861C35.4395 25.0953 35.4957 24.8627 35.4957 24.505V21.4318C35.4957 20.3726 35.4676 19.7831 35.4094 19.6656C35.3276 19.4749 35.1682 19.38 34.9311 19.38H34.7287V18.8122H37.151L37.2002 20.1958ZM45.2235 24.7677C45.1934 24.7854 45.1632 24.8111 45.1244 24.8329L45.2235 24.7771C45.1029 25.1088 44.8807 25.4062 44.5532 25.6606C44.1821 25.9573 43.7203 26.1174 43.2452 26.1139C42.4262 26.1139 41.8487 25.8897 41.5126 25.437C41.2453 25.0831 41.1095 24.5276 41.1095 23.773V20.8048C41.1095 20.1366 41.0793 19.7467 41.0211 19.6347C40.9393 19.485 40.7473 19.4073 40.4416 19.4073H40.3813V18.8136H43.058V24.0233C43.058 24.7126 43.3446 25.0578 43.9179 25.0578C44.392 25.0578 44.713 24.7303 44.879 24.0621C44.9521 23.7949 44.9868 23.4285 44.9868 22.9627V20.8076C44.9868 20.0704 44.9525 19.6642 44.8811 19.5855C44.7778 19.468 44.5622 19.4067 44.2323 19.4067H44.0299V18.8129H46.9523V24.1304C46.9523 24.7123 46.987 25.0526 47.058 25.1435C47.1485 25.2682 47.3232 25.3285 47.5797 25.3285H47.7627V25.8976H45.1681L45.1247 24.7556L45.1681 24.7854L45.1809 24.8163L45.2235 24.7677ZM50.9714 18.6504C50.0166 18.6504 49.2454 19.0601 48.659 19.8756C48.1418 20.602 47.8833 21.4318 47.8833 22.3669C47.8833 23.3928 48.0729 24.2246 48.4607 24.8672C48.9522 25.6987 49.7126 26.1129 50.7454 26.1129C51.2754 26.1129 51.7364 25.9489 52.129 25.6214C52.4351 25.3587 52.6354 25.0696 52.7283 24.7549L52.6787 24.7937L52.6205 24.7379L52.6701 25.8976H55.2109V25.3365H55.0837C54.793 25.3365 54.6006 25.2589 54.5084 25.1081C54.4353 25.0003 54.4003 24.7979 54.4003 24.5088V15.4319L51.4265 15.6593V16.1896H51.6206C51.9956 16.1896 52.2368 16.2918 52.3474 16.4946C52.4122 16.6142 52.451 16.8845 52.4638 17.307C52.4638 18.4469 52.4833 19.1138 52.5221 19.3037C52.2465 18.867 51.7273 18.6504 50.9714 18.6504ZM52.4794 21.5999V23.0355C52.4794 23.4275 52.4496 23.755 52.3914 24.0136C52.2146 24.7982 51.8396 25.1944 51.2709 25.1944C50.4734 25.1944 50.0727 24.2503 50.0727 22.3669C50.0727 21.5288 50.1205 20.9112 50.2103 20.5112C50.393 19.7387 50.7572 19.3522 51.3007 19.3522C52.0857 19.3519 52.4794 20.1019 52.4794 21.5999ZM57.3758 22.1926H61.6884C61.6815 21.1271 61.4427 20.2863 60.9731 19.6721C60.4431 18.9727 59.6584 18.6227 58.6197 18.6227C57.6648 18.6227 56.8742 18.9665 56.2445 19.6527C55.6109 20.3598 55.2966 21.2606 55.2966 22.3541C55.2966 23.4791 55.5724 24.3712 56.128 25.0312C56.7231 25.7555 57.5695 26.1129 58.6665 26.1129C59.5177 26.1129 60.2352 25.7985 60.8171 25.1733C61.3262 24.6256 61.5907 24.0396 61.6104 23.4105H60.893C60.8861 23.8756 60.7096 24.3116 60.363 24.7168C59.9704 25.1823 59.5032 25.4107 58.9576 25.4107C58.1799 25.4107 57.6884 24.8547 57.486 23.7425C57.4132 23.3713 57.3758 22.8584 57.3758 22.1926ZM58.5985 19.1633C59.3437 19.1633 59.7187 19.9747 59.7187 21.5975H57.3758C57.3827 21.3445 57.3934 21.1341 57.4063 20.9653C57.505 19.7647 57.9022 19.1633 58.5985 19.1633ZM64.4924 19.7345C64.6542 19.406 64.9128 19.1398 65.2656 18.9329C65.6195 18.7259 66.0111 18.6223 66.4444 18.6223C67.8647 18.6223 68.5752 19.3938 68.5752 20.9379V24.1647C68.5752 24.522 68.578 24.7372 68.5839 24.8111C68.6095 25.1556 68.8296 25.3278 69.2369 25.3278H69.3856V25.8969H66.627V20.6894C66.627 20.3293 66.5844 20.0707 66.4977 19.9134C66.3733 19.6839 66.1383 19.5685 65.791 19.5685C65.4639 19.5685 65.2008 19.7279 65.0025 20.0492C64.8071 20.3716 64.7072 20.8454 64.7072 21.4727V24.1428C64.7072 24.7421 64.735 25.0779 64.7953 25.1428C64.9138 25.2679 65.1249 25.3282 65.4268 25.3282H65.5453V25.8976H61.9508V25.3282H62.1428C62.5095 25.3282 62.7053 25.1563 62.7334 24.8111C62.7462 24.7296 62.7528 24.4964 62.7528 24.1127V20.5684C62.7528 20.0177 62.7119 19.6825 62.6301 19.5619C62.5507 19.4403 62.3778 19.38 62.1154 19.38H61.9518V18.8122H64.4924V19.7345ZM72.0595 26.1125C70.8808 26.1125 70.2881 25.4439 70.2881 24.1082V19.406H69.0209V18.8379H69.2154C69.9093 18.8379 70.495 18.448 70.9781 17.6633C71.3916 17.0051 71.6034 16.3313 71.6162 15.6472H72.211V18.8379H73.5641V19.406H72.211V24.3453C72.211 24.9275 72.3905 25.2204 72.7499 25.2204C73.0667 25.2204 73.2719 24.9442 73.3641 24.3924C73.3963 24.1941 73.4137 23.7973 73.4137 23.207H74.0774C74.0774 24.1817 73.989 24.8489 73.8143 25.1982C73.5201 25.8106 72.934 26.1125 72.0595 26.1125ZM14.6904 11.976C9.69809 11.976 6.43665 16.0794 6.43665 19.8992C6.43665 22.0931 6.97109 23.1856 7.55718 24.2326C8.29647 22.2463 9.77399 18.2944 9.77399 18.2944C9.77399 18.2944 10.4623 17.9388 10.4623 17.9908L11.4546 15.4683L12.0927 15.1373L12.8836 13.4553L14.6131 13.7357L18.13 15.6967L22.078 16.793C21.0608 14.1949 18.1816 11.976 14.6904 11.976ZM14.6384 28.8925C12.4736 28.8925 9.82494 28.1297 7.91348 25.785H21.3408C19.785 27.798 17.1124 28.8925 14.6384 28.8925ZM17.2895 25.3798H16.0653L18.3369 22.5502L18.5653 22.9831L17.2895 25.3798ZM18.4877 16.3844L14.5913 14.1183L13.1637 13.8629V14.9072L14.2596 15.9276L12.7304 15.7983C12.7304 15.7983 12.78 15.8759 14.0527 17.2259L19.8626 18.1936L20.8799 18.8563L18.2333 18.9835L17.1384 22.9831L13.5449 25.3798H11.2002L11.9911 23.824L11.8629 23.7727L9.74765 25.3805H9.2392L11.404 22.3458C11.5063 21.4807 11.4546 21.8626 11.5829 20.3074L11.2519 19.8499L10.3854 23.2119L8.57617 25.3802H8.11693L9.18686 23.8753L10.69 19.2649L10.3074 19.4417L9.64471 21.2765L9.18686 21.5306C9.18686 21.5306 8.11693 24.1297 7.55649 25.401C6.74234 24.2336 5.82422 22.6535 5.82422 19.8995C5.82422 15.7723 9.36605 11.417 14.6904 11.417C19.811 11.417 22.5394 15.4933 22.9962 17.6064L18.4877 16.3844ZM21.0091 22.3454L20.2678 22.9831L18.7937 25.3798H17.824L18.7937 23.6684L19.5566 23.0348L20.6556 19.9518L21.8236 20.4357L21.0091 22.3454ZM21.6985 25.3798H19.7375L21.5952 22.4487L22.1557 20.5372L23.3279 20.9455C23.2246 22.423 22.7418 23.9231 21.6985 25.3798ZM19.3022 21.8626L18.7161 21.9666L18.8714 20.7927L18.7161 20.5632L18.8714 19.2379L20.3714 19.8499L19.3022 21.8626ZM74.5481 25.3323H74.7356C75.0156 25.3323 75.192 25.2415 75.2631 25.0696C75.3085 24.9445 75.3296 24.634 75.3296 24.1342V20.4294C75.3296 19.9272 75.2818 19.633 75.1782 19.5436C75.0794 19.4552 74.9304 19.4112 74.7349 19.4112H74.5474V18.8431H77.2518V24.1338C77.2518 24.7161 77.2865 25.0565 77.36 25.1552C77.4504 25.2759 77.6185 25.332 77.8726 25.332H78.067V25.9015H74.5481V25.3323ZM75.0631 16.8585C75.0631 16.5386 75.1754 16.2679 75.4021 16.0426C75.5085 15.9338 75.6359 15.8478 75.7767 15.7898C75.9174 15.7318 76.0685 15.7031 76.2207 15.7054C76.3736 15.7032 76.5253 15.7319 76.6668 15.7899C76.8082 15.8478 76.9365 15.9338 77.0439 16.0426C77.2747 16.2679 77.3891 16.5382 77.3891 16.8585C77.3891 17.1794 77.2747 17.4543 77.0439 17.6837C76.8158 17.9163 76.542 18.0317 76.2207 18.0317C75.8998 18.0317 75.6284 17.9163 75.4021 17.6837C75.2925 17.5764 75.206 17.4478 75.1477 17.306C75.0895 17.1641 75.0607 17.0119 75.0631 16.8585Z" fill="#B7C0CC"/>
</g>
<defs>
<clipPath id="clip0_5_23707">
<rect width="83.217" height="17.4756" fill="white" transform="translate(5.8075 11.417)"/>
</clipPath>
</defs>
</svg>
