<svg width="96" height="39" viewBox="0 0 96 39" fill="none" xmlns="http://www.w3.org/2000/svg">
<g clip-path="url(#clip0_5_23735)">
<path d="M32.5153 15.8882C31.6002 15.4307 30.6394 15.2476 29.587 15.2476C28.5804 15.2476 27.6653 15.4307 26.796 15.7967C25.9267 16.1627 25.1946 16.6203 24.5083 17.2608C23.8677 17.9014 23.3644 18.6335 22.9984 19.457C22.6323 20.2806 22.4493 21.1499 22.4493 22.0193C22.4493 23.2089 22.7239 24.2155 23.2729 25.1306C23.822 26.0457 24.5998 26.732 25.5606 27.2353C26.5215 27.7386 27.5281 27.9673 28.6719 27.9673C29.6328 27.9673 30.5021 27.7843 31.3257 27.4636C32.1492 27.1438 32.8813 26.64 33.5219 26.0452C34.1624 25.4504 34.62 24.7183 34.986 23.849C35.352 22.9797 35.5351 22.1103 35.5351 21.1037C35.5351 19.8226 35.2605 18.7245 34.7115 17.8552C34.1624 16.9863 33.4304 16.3457 32.5153 15.8882ZM31.1427 22.6598C30.9139 23.2089 30.5936 23.6207 30.1818 23.9867C29.77 24.307 29.3125 24.49 28.7634 24.49C28.1229 24.49 27.5738 24.2612 27.2078 23.8037C26.796 23.3461 26.613 22.7971 26.613 22.1108C26.613 21.6532 26.7045 21.1499 26.8875 20.6009C27.0705 20.0518 27.3908 19.5943 27.8026 19.2283C28.2144 18.8622 28.7177 18.6792 29.3582 18.6792C29.9988 18.6792 30.5021 18.908 30.8681 19.3198C31.2799 19.7316 31.4629 20.3264 31.4629 21.0584C31.4629 21.6075 31.3714 22.1565 31.1427 22.6598ZM84.5379 15.5222C84.2177 15.4764 83.9431 15.4307 83.6229 15.3849C83.3026 15.3391 82.9828 15.3391 82.7078 15.2934C82.3875 15.2476 82.113 15.2476 81.8842 15.2476C80.6488 15.2476 80.0083 15.3391 78.9559 15.5222C77.9036 15.7052 76.9885 15.9339 76.2107 16.117L74.3805 27.6928H78.5446L80.0087 18.3594C80.1913 18.3136 81.0149 18.1764 81.2898 18.1764C81.8847 18.1764 82.3875 18.2221 82.8913 18.3136C83.3945 18.4051 83.8063 18.4966 84.1724 18.5424L85.3162 15.7056C85.087 15.6137 84.8582 15.5679 84.5379 15.5222ZM60.3339 12.3651L53.5165 27.6928H57.3141L64.4976 12.3651H60.3339ZM23.2272 15.4307H12.1546L11.7428 18.2674H16.9131L10.3244 27.6928H21.4427L21.8545 24.7645H16.73L23.2272 15.4307ZM54.3858 16.9863H50.2222L52.876 27.6928L55.2552 22.2023L54.3858 16.9863ZM71.3149 15.8424C70.5371 15.4307 69.6673 15.2476 68.707 15.2476C67.4258 15.2476 66.282 15.5679 65.2754 16.2085C64.2688 16.849 63.4452 17.6726 62.8962 18.7707C62.3013 19.8231 62.0268 21.0127 62.0268 22.248C62.0268 23.0716 62.2098 23.941 62.5306 24.8103C62.8966 25.6796 63.5372 26.4117 64.498 27.0065C65.4589 27.6471 66.7857 27.9216 68.4329 27.9216C69.2107 27.9216 69.8517 27.8758 70.4008 27.739C70.9041 27.6018 71.5904 27.373 72.4597 27.0527L73.0545 24.0329C72.1394 24.399 71.3616 24.6735 70.7206 24.8565C70.0805 25.0391 69.348 25.131 68.4791 25.131C66.8315 25.131 65.9626 24.2617 65.9626 22.5688H73.7408C73.8323 21.9282 73.9234 21.3334 73.9234 20.7844C73.9234 19.549 73.6946 18.5424 73.1913 17.6731C72.7733 16.8812 72.1168 16.2409 71.3149 15.8424ZM70.0796 20.2806V20.4636H66.3277C66.6023 19.7316 66.9225 19.1368 67.2428 18.6792C67.5631 18.2217 68.0206 17.9929 68.6154 17.9929C69.5763 17.9929 70.0338 18.6792 70.0338 20.0518C70.0796 20.1891 70.0796 20.2349 70.0796 20.2806ZM46.7449 15.8882C45.8298 15.4307 44.8689 15.2476 43.8166 15.2476C42.81 15.2476 41.8949 15.4307 41.0256 15.7967C40.1563 16.1627 39.4242 16.6203 38.7379 17.2608C38.0973 17.9014 37.594 18.6335 37.228 19.457C36.8619 20.2806 36.6789 21.1499 36.6789 22.0193C36.6789 23.2089 36.9535 24.2155 37.5025 25.1306C38.0516 26.0457 38.8294 26.732 39.7902 27.2353C40.7511 27.739 41.7577 27.9678 42.9015 27.9678C43.8624 27.9678 44.7317 27.7848 45.5553 27.464C46.3788 27.1442 47.1109 26.6405 47.7515 26.0457C48.3916 25.4508 48.8491 24.7188 49.2152 23.8494C49.5816 22.9801 49.7642 22.1108 49.7642 21.1042C49.7642 19.8231 49.4897 18.725 48.9406 17.8556C48.3916 16.9863 47.66 16.3457 46.7449 15.8882ZM45.3722 22.6598C45.1435 23.2089 44.8232 23.6207 44.4114 23.9867C43.9996 24.307 43.5421 24.49 42.993 24.49C42.3525 24.49 41.8034 24.2612 41.4374 23.8037C41.0256 23.3461 40.8426 22.7971 40.8426 22.1108C40.8426 21.6532 40.9341 21.1499 41.1171 20.6009C41.3001 20.0518 41.6204 19.5943 42.0322 19.2283C42.444 18.8622 42.9473 18.6792 43.6336 18.6792C44.2741 18.6792 44.7774 18.908 45.1435 19.3198C45.5553 19.7316 45.7383 20.3264 45.7383 21.0584C45.6925 21.6075 45.601 22.1565 45.3722 22.6598Z" fill="#B7C0CC"/>
</g>
<defs>
<clipPath id="clip0_5_23735">
<rect width="75.0107" height="15.6022" fill="white" transform="translate(10.3159 12.3651)"/>
</clipPath>
</defs>
</svg>
